<svg version="1.1" id="Layer_1" xmlns="http://www.w3.org/2000/svg" xmlns:xlink="http://www.w3.org/1999/xlink" x="0px" y="0px"
	 width="100%" viewBox="0 0 1024 672" enable-background="new 0 0 1024 672" xml:space="preserve">
<path fill="#000000" opacity="1.000000" stroke="none" 
	d="
M219.675140,337.777161 
	C217.336288,308.261597 236.674026,293.846680 256.792053,289.543884 
	C266.676941,287.429718 276.624786,285.244171 285.446960,279.759338 
	C290.605011,276.552551 294.867706,272.418518 299.084625,268.143860 
	C303.699951,263.465393 306.954041,263.956299 309.821777,269.905731 
	C314.232422,279.056183 315.556030,289.003143 316.004852,298.961060 
	C316.705658,314.509766 315.437042,329.900330 309.241669,344.451843 
	C303.240234,358.547852 293.837891,369.748993 278.829041,374.183624 
	C259.028351,380.034088 241.326431,376.069611 227.179199,359.639771 
	C223.638916,361.323853 221.519150,364.511505 219.125854,367.385193 
	C217.955170,368.790863 216.962143,370.348724 215.750061,371.714661 
	C213.930038,373.765717 211.697388,374.675537 209.059860,373.329407 
	C206.263229,371.902008 206.298889,369.291840 206.895782,366.812775 
	C207.271439,365.252686 208.236237,363.777466 209.166595,362.421936 
	C210.387527,360.643005 211.587311,358.714172 213.228760,357.383362 
	C219.478561,352.316254 222.991913,346.472656 219.675140,337.777161 
M305.974091,299.283997 
	C305.255981,292.979401 304.901337,286.583954 301.553040,280.201141 
	C289.573883,292.272797 274.602539,296.652405 259.225464,300.078186 
	C254.656189,301.096161 250.211823,302.430573 245.957413,304.353027 
	C232.734283,310.328186 225.821609,325.546509 230.535370,342.018097 
	C231.294601,341.843597 232.149918,341.823700 232.825928,341.465424 
	C245.392181,334.805511 259.496246,330.701355 269.229767,319.319580 
	C271.180786,317.038147 274.048004,316.908539 276.474976,318.674225 
	C278.852478,320.403839 278.727936,322.995361 277.673218,325.463074 
	C276.400238,328.441559 274.168274,330.707397 271.699005,332.721222 
	C264.123993,338.899017 255.448944,343.083832 246.345535,346.413177 
	C242.255615,347.908966 238.380203,349.664520 235.092621,352.640869 
	C235.626785,355.385406 237.636383,356.959412 239.505753,358.551422 
	C254.387711,371.225586 279.925995,369.103912 292.150269,353.847137 
	C304.746796,338.125763 307.297760,319.574371 305.974091,299.283997 
z"/>
<path fill="#000000" opacity="1.000000" stroke="none" 
	d="
M393.006989,310.375977 
	C393.280151,326.543854 385.717529,334.329468 370.159760,334.373413 
	C358.293793,334.406921 358.293701,334.406952 358.305695,346.190460 
	C358.307892,348.353607 358.314850,350.516785 358.313324,352.679932 
	C358.307739,360.489380 358.304169,360.293427 350.274170,360.398499 
	C346.178162,360.452087 344.728363,359.077698 344.760529,354.949677 
	C344.909729,335.815216 344.914001,316.678192 344.756287,297.543854 
	C344.721191,293.286102 345.998962,291.529663 350.468048,291.733307 
	C357.276520,292.043488 364.116028,291.634827 370.929199,291.887329 
	C383.722961,292.361420 390.742859,298.234650 393.006989,310.375977 
M377.660675,317.981140 
	C379.450104,313.753448 379.309906,309.831879 375.525543,306.725433 
	C372.929535,304.594452 361.241089,302.909760 359.734711,304.901672 
	C356.607269,309.037109 358.887451,314.149231 358.366974,318.809998 
	C358.202911,320.279480 358.281677,321.791687 360.106323,322.520355 
	C364.326569,324.205536 373.847412,322.101410 377.660675,317.981140 
z"/>
<path fill="#000000" opacity="1.000000" stroke="none" 
	d="
M488.676880,374.074036 
	C488.806641,372.334076 488.937347,371.038269 489.070160,369.721893 
	C491.635010,368.814026 494.136444,370.010712 496.539093,368.797913 
	C501.001770,366.545288 502.977692,362.466461 501.280518,357.815430 
	C496.492218,344.693634 491.667603,331.585083 486.877441,318.463959 
	C486.148804,316.468109 485.527283,314.433105 484.796936,312.238007 
	C488.800903,310.387726 492.631989,310.907349 496.373810,311.057861 
	C498.944031,311.161194 499.225403,313.561462 499.859741,315.381897 
	C502.972534,324.314697 506.018005,333.270966 509.308167,342.863037 
	C512.126160,339.033295 512.650818,334.927826 514.088562,331.243683 
	C515.779724,326.910278 517.571838,322.544067 518.556152,318.025665 
	C519.738281,312.599182 522.768921,310.499756 528.036072,310.880859 
	C529.835510,311.011078 531.695618,310.489594 533.416138,311.402557 
	C534.551208,312.925903 533.560669,314.342590 533.081177,315.644531 
	C526.817749,332.652161 520.615051,349.684265 514.114563,366.601715 
	C510.455536,376.124268 503.550476,380.438263 494.164673,380.146362 
	C490.295990,380.026093 488.111389,378.734467 488.676880,374.074036 
z"/>
<path fill="#000000" opacity="1.000000" stroke="none" 
	d="
M436.724792,360.167480 
	C432.848816,359.985291 428.726227,361.891357 426.813110,356.852356 
	C423.041504,358.573547 419.909424,361.078369 415.854523,361.751526 
	C406.407684,363.319672 398.609192,358.125244 397.132355,348.951172 
	C395.720581,340.181152 401.072327,333.127502 410.351318,331.711670 
	C413.792145,331.186646 417.298889,331.089874 420.736786,330.550598 
	C422.497650,330.274414 425.129059,331.249786 425.580780,328.295563 
	C426.007629,325.504089 425.377075,322.961395 422.828613,321.287109 
	C419.791565,319.291779 414.740082,320.060974 412.338623,322.839050 
	C409.288239,326.367798 404.760468,327.238678 400.595825,325.255707 
	C399.345398,324.660370 398.737549,323.868988 398.923004,322.571899 
	C399.062866,321.593536 399.321259,320.607056 399.691589,319.690735 
	C402.735840,312.158752 412.723389,308.355042 424.397461,310.246979 
	C433.273254,311.685455 438.660553,316.894379 438.966370,325.367310 
	C439.332672,335.514587 439.087067,345.684723 439.059357,355.844788 
	C439.054901,357.483704 439.111633,359.259583 436.724792,360.167480 
M425.442688,345.637970 
	C425.397827,343.483185 426.963989,340.365753 423.949677,339.638031 
	C419.913757,338.663666 415.652527,339.222961 412.243683,342.049072 
	C410.671692,343.352295 409.991394,345.314606 410.658997,347.443695 
	C411.353394,349.658020 412.806549,351.180176 415.117065,351.633118 
	C419.842804,352.559540 423.115967,350.603455 425.442688,345.637970 
z"/>
<path fill="#000000" opacity="1.000000" stroke="none" 
	d="
M578.554199,359.477356 
	C574.182983,359.986725 569.440308,362.505768 567.213745,356.140961 
	C561.766968,360.762848 555.824585,363.207489 548.756714,361.471283 
	C542.233398,359.868896 538.153137,355.033966 537.712158,348.355804 
	C537.160339,339.998474 539.959656,335.159790 547.073364,332.667999 
	C551.662842,331.060394 556.486328,330.740997 561.326172,330.514374 
	C563.108704,330.430908 565.851379,331.336914 566.243958,328.451447 
	C566.609680,325.763214 565.878418,323.135040 563.394348,321.425842 
	C560.114746,319.169312 555.474976,320.047363 552.723816,323.425995 
	C550.385864,326.297180 543.496338,327.093292 540.719360,324.818573 
	C539.659912,323.950684 539.565247,322.746429 539.924316,321.633423 
	C540.431274,320.062286 541.022278,318.458252 541.906189,317.079102 
	C545.878601,310.881317 557.897705,308.009613 567.591797,310.834259 
	C575.592896,313.165619 579.445801,318.527649 579.316467,327.709961 
	C579.168884,338.187103 579.929871,348.677826 578.554199,359.477356 
M557.485718,339.798706 
	C553.469299,340.673309 550.476807,342.616882 551.297485,347.261353 
	C552.040649,351.467285 555.342773,352.173370 558.968750,351.736053 
	C563.249268,351.219818 566.803284,346.853821 566.603394,342.592560 
	C566.377808,337.783142 562.730530,339.707520 560.255493,339.382019 
	C559.615845,339.297882 558.936584,339.514404 557.485718,339.798706 
z"/>
<path fill="#000000" opacity="1.000000" stroke="none" 
	d="
M729.945312,331.638000 
	C733.772217,330.678864 737.268555,330.536499 740.756653,330.569061 
	C744.765564,330.606476 745.167664,328.364227 744.237488,325.312531 
	C743.467712,322.786957 741.949585,320.831329 739.147278,320.397095 
	C736.229919,319.945068 733.098389,320.020660 731.530823,322.813293 
	C728.393799,328.401703 723.945740,326.053162 719.719299,325.239990 
	C717.766724,324.864288 717.606567,323.307434 718.046570,321.722260 
	C718.624695,319.639862 719.322998,317.604553 720.762268,315.891907 
	C727.542664,307.823517 747.179993,307.755493 753.974915,315.822113 
	C756.309021,318.593109 757.426270,321.762726 757.382263,325.463196 
	C757.273438,334.615417 757.453857,343.771912 757.276550,352.921997 
	C757.229675,355.339050 758.730774,358.475159 755.529236,360.045624 
	C752.500122,361.531555 747.356323,359.961365 744.839294,356.940887 
	C737.645630,362.244659 729.861633,364.424347 721.895691,358.928986 
	C715.907654,354.798065 715.474731,348.329163 716.798523,341.844482 
	C718.173279,335.110077 723.444519,332.771027 729.945312,331.638000 
M742.849548,348.266846 
	C744.636902,345.844025 745.750061,342.827057 744.020874,340.436340 
	C742.340210,338.112701 739.124695,339.462006 736.553650,339.619537 
	C735.907776,339.659119 735.279968,339.965698 734.640259,340.136383 
	C730.937500,341.124390 728.804810,343.329956 729.530457,347.343292 
	C730.141663,350.723541 733.818970,352.530762 737.798096,351.670746 
	C739.664062,351.267487 741.088013,350.181915 742.849548,348.266846 
z"/>
<path fill="#000000" opacity="1.000000" stroke="none" 
	d="
M636.755798,320.060242 
	C641.009399,307.811310 664.007202,307.394836 670.914307,314.771759 
	C673.761169,317.812256 675.403076,321.263885 675.372375,325.532135 
	C675.303040,335.189362 675.422791,344.848145 675.317932,354.504700 
	C675.296692,356.459564 676.422424,359.587891 673.452759,359.930481 
	C670.339478,360.289703 666.400391,362.162598 664.145264,357.828979 
	C663.938354,357.431519 663.465576,357.172363 662.909912,356.657898 
	C657.591553,360.829865 651.789368,363.204498 644.905029,361.333405 
	C638.450562,359.579102 634.872253,355.125916 634.275879,347.898376 
	C633.687439,340.767365 636.545227,335.574768 642.768616,333.033234 
	C647.283325,331.189484 652.087891,330.746460 656.948486,330.595520 
	C659.185669,330.526093 662.490906,331.595947 662.563965,327.574707 
	C662.627563,324.074768 661.025879,321.329376 657.466858,320.496338 
	C653.758850,319.628418 650.741333,320.715973 648.451172,324.141083 
	C645.377991,328.737366 641.165833,325.612762 637.567078,324.985352 
	C634.867859,324.514740 636.307739,322.114716 636.755798,320.060242 
M652.775452,351.789886 
	C653.599304,351.774048 654.447266,351.880127 655.242981,351.722382 
	C660.125488,350.754303 664.094116,345.695190 662.459290,341.647156 
	C660.629944,337.117432 656.643005,339.859375 653.497253,340.018463 
	C653.173279,340.034821 652.855591,340.169525 652.534424,340.247375 
	C649.697693,340.935303 647.689453,342.557281 647.458252,345.574677 
	C647.211670,348.791473 648.796936,350.911102 652.775452,351.789886 
z"/>
<path fill="#000000" opacity="1.000000" stroke="none" 
	d="
M806.833984,326.574524 
	C806.920593,336.513794 806.780212,346.013245 807.063721,355.500061 
	C807.219910,360.726196 804.047607,360.508698 800.535095,360.356293 
	C797.157837,360.209747 793.326416,361.265442 793.571655,355.453369 
	C793.901306,347.638214 793.697937,339.797821 793.616638,331.969391 
	C793.583618,328.790680 793.273926,325.549561 790.898193,323.125488 
	C788.600769,320.781158 785.727417,320.194275 782.616028,321.333496 
	C778.522888,322.832092 776.562439,326.048737 776.458801,330.171997 
	C776.257996,338.163116 776.033936,346.180084 776.465210,354.151398 
	C776.755859,359.523346 774.577881,360.648407 769.790039,360.399078 
	C763.027344,360.046936 762.889099,360.201080 762.893921,353.826172 
	C762.902832,341.999084 762.864380,330.171082 763.016663,318.345673 
	C763.047363,315.965881 761.641418,312.188477 765.601868,311.904022 
	C769.274048,311.640228 774.228271,309.417755 775.800049,315.598785 
	C788.694458,304.722961 806.156128,310.417206 806.833984,326.574524 
z"/>
<path fill="#000000" opacity="1.000000" stroke="none" 
	d="
M596.888916,351.002808 
	C592.246277,337.986877 587.724915,325.343109 583.027283,312.206512 
	C586.604797,311.723602 589.383972,311.448822 592.123047,310.952789 
	C595.388123,310.361481 597.041260,311.767609 597.957764,314.812805 
	C600.306274,322.616516 602.822449,330.369629 605.242493,338.152039 
	C605.726440,339.708069 605.947937,341.372009 607.812256,342.846191 
	C610.310547,334.996918 612.770264,327.438080 615.119751,319.845093 
	C618.189636,309.923950 620.072693,308.875702 630.607300,311.495239 
	C631.527039,312.817871 630.810364,314.051636 630.377441,315.283081 
	C625.795593,328.315674 620.822388,341.227600 616.768616,354.422089 
	C614.623657,361.403503 609.554199,359.744568 604.840271,360.376678 
	C599.861206,361.044250 599.165161,357.481781 597.995300,354.206207 
	C597.659241,353.265167 597.338074,352.318848 596.888916,351.002808 
z"/>
<path fill="#000000" opacity="1.000000" stroke="none" 
	d="
M448.870178,332.000336 
	C448.878143,327.008972 448.734131,322.509888 448.956024,318.028961 
	C449.073456,315.656677 447.753113,311.884247 451.874176,311.841888 
	C455.513550,311.804443 460.502655,309.344238 461.987946,315.798676 
	C465.258209,312.521729 468.474854,309.695679 473.297241,309.961945 
	C476.650818,310.147095 478.670044,311.378357 478.334290,315.132935 
	C478.186768,316.783203 478.239044,318.461548 478.327759,320.120361 
	C478.485504,323.069794 477.342987,324.147034 474.228516,324.131500 
	C466.014099,324.090485 463.157745,327.035675 463.051208,335.190613 
	C462.964294,341.843567 462.927582,348.500214 463.054199,355.151733 
	C463.124664,358.853485 461.951172,360.904633 457.881073,360.366211 
	C456.735565,360.214661 455.543243,360.215912 454.392792,360.338440 
	C450.342072,360.769958 448.696869,359.129639 448.820312,354.956055 
	C449.041504,347.476807 448.874786,339.986115 448.870178,332.000336 
z"/>
<path fill="#000000" opacity="1.000000" stroke="none" 
	d="
M696.093750,313.140869 
	C696.348694,314.115021 696.491882,314.749817 696.783813,316.044006 
	C699.930969,312.814880 703.031067,310.174591 707.428345,309.970215 
	C711.156494,309.796936 713.692810,310.725464 713.335632,315.171539 
	C713.189392,316.992462 713.239136,318.836212 713.307190,320.665588 
	C713.402344,323.224396 712.277710,324.474701 709.707336,324.048737 
	C702.291565,322.819733 697.783508,327.953461 697.426880,336.856201 
	C697.173645,343.175995 697.138062,349.524048 697.431519,355.839691 
	C697.648254,360.504974 694.870422,360.597015 691.686401,360.283997 
	C688.762085,359.996582 684.577942,361.906647 684.631165,356.120605 
	C684.753845,342.796234 684.748047,329.469177 684.615051,316.144989 
	C684.579712,312.604279 686.004883,311.241547 689.361206,311.666718 
	C691.582397,311.948059 694.053345,310.815033 696.093750,313.140869 
z"/>
</svg>